{"glyphs":{"\r":{"ha":0,"x_min":0,"x_max":0,"o":""},"\u0000":{"ha":0,"x_min":0,"x_max":0,"o":""}," ":{"ha":268,"x_min":0,"x_max":0,"o":""},"Ą":{"ha":986,"x_min":4,"x_max":1017,"o":"m 975 -130 q 991 -141 988 -130 l 1017 -204 q 960 -230 994 -219 q 888 -240 926 -240 q 783 -211 819 -240 q 746 -137 746 -183 q 771 -64 746 -99 q 844 0 797 -28 l 840 0 q 800 12 815 0 q 777 42 784 24 l 702 247 l 286 247 l 211 42 q 189 13 206 26 q 149 0 173 0 l 4 0 l 399 1004 l 590 1004 l 984 0 l 947 0 q 920 -17 933 -8 q 897 -39 907 -27 q 880 -65 886 -51 q 874 -94 874 -79 q 887 -127 874 -115 q 924 -140 900 -140 q 945 -138 937 -140 q 959 -135 953 -137 q 968 -131 964 -133 q 975 -130 972 -130 m 334 379 l 654 379 l 532 713 q 514 766 524 735 q 494 831 503 796 q 474 765 484 796 q 456 712 465 735 l 334 379 z "},"ą":{"ha":727,"x_min":56,"x_max":720,"o":"m 650 0 q 623 -17 636 -8 q 599 -39 610 -27 q 583 -65 589 -51 q 576 -94 576 -79 q 590 -127 576 -115 q 626 -140 603 -140 q 648 -138 640 -140 q 661 -135 656 -137 q 670 -131 667 -133 q 678 -130 674 -130 q 694 -141 690 -130 l 720 -204 q 663 -230 697 -219 q 590 -240 628 -240 q 485 -211 522 -240 q 449 -137 449 -183 q 475 -63 449 -99 q 550 2 501 -27 q 527 13 536 5 q 514 37 519 21 l 499 88 q 445 45 472 63 q 392 14 419 26 q 333 -5 364 1 q 263 -11 301 -11 q 180 1 218 -11 q 114 38 142 13 q 72 98 87 62 q 56 182 56 134 q 77 261 56 222 q 148 332 99 301 q 279 385 197 364 q 483 408 361 406 l 483 450 q 452 556 483 522 q 365 590 422 590 q 295 581 323 590 q 247 559 267 571 q 209 537 226 547 q 171 527 192 527 q 141 536 153 527 q 121 558 128 546 l 90 613 q 386 726 213 726 q 498 705 449 726 q 581 648 547 685 q 632 561 615 612 q 650 450 650 510 l 650 0 m 317 107 q 365 112 343 107 q 407 126 388 117 q 445 150 427 136 q 483 184 464 165 l 483 304 q 357 291 408 301 q 276 267 307 282 q 233 233 246 253 q 220 191 220 214 q 247 126 220 146 q 317 107 274 107 z "},"Ć":{"ha":931,"x_min":43,"x_max":897,"o":"m 792 237 q 818 225 807 237 l 892 145 q 741 29 831 69 q 527 -11 652 -11 q 326 27 415 -11 q 174 133 237 65 q 77 296 110 201 q 43 502 43 390 q 81 709 43 615 q 186 872 118 803 q 349 977 254 940 q 558 1015 444 1015 q 754 980 670 1015 q 897 885 838 944 l 835 798 q 820 783 829 790 q 797 777 812 777 q 764 790 781 777 q 722 817 747 802 q 657 844 696 831 q 557 856 617 856 q 427 832 486 856 q 325 761 367 807 q 258 650 282 715 q 234 502 234 584 q 258 351 234 417 q 323 240 282 285 q 419 171 364 195 q 539 147 475 147 q 608 151 577 147 q 665 165 639 156 q 714 188 691 174 q 760 223 738 202 q 775 233 767 229 q 792 237 783 237 m 820 1244 l 615 1094 q 600 1085 607 1088 q 587 1079 594 1081 q 573 1076 581 1077 q 556 1076 566 1076 l 422 1076 l 558 1216 q 573 1230 566 1224 q 588 1239 581 1235 q 606 1243 596 1242 q 629 1244 615 1244 l 820 1244 z "},"ć":{"ha":663,"x_min":44,"x_max":644,"o":"m 592 562 q 577 547 585 552 q 556 541 570 541 q 531 549 543 541 q 501 567 518 557 q 459 585 483 577 q 400 593 435 593 q 321 577 355 593 q 264 530 287 560 q 231 456 242 499 q 219 358 219 413 q 232 256 219 301 q 267 182 244 212 q 322 136 290 151 q 396 120 355 120 q 462 130 437 120 q 505 152 488 140 q 535 175 522 165 q 564 185 548 185 q 595 169 585 185 l 644 106 q 583 50 616 73 q 514 14 549 28 q 440 -5 478 1 q 364 -10 401 -10 q 240 14 298 -10 q 138 86 181 39 q 69 202 94 133 q 44 358 44 270 q 66 503 44 436 q 133 619 89 570 q 241 696 176 668 q 390 724 306 724 q 530 698 469 724 q 638 624 590 672 l 592 562 m 628 1015 l 457 834 q 432 815 444 820 q 400 810 419 810 l 297 810 l 396 978 q 420 1006 406 997 q 462 1015 434 1015 l 628 1015 z "},"Ę":{"ha":804,"x_min":101,"x_max":742,"o":"m 699 -130 q 715 -141 712 -130 l 742 -204 q 684 -230 719 -219 q 612 -240 650 -240 q 507 -211 544 -240 q 470 -137 470 -183 q 495 -64 470 -99 q 568 0 521 -28 l 101 0 l 101 1004 l 735 1004 l 735 856 l 290 856 l 290 577 l 640 577 l 640 433 l 290 433 l 290 149 l 735 149 l 735 0 l 672 0 q 644 -17 658 -8 q 621 -39 631 -27 q 604 -65 610 -51 q 598 -94 598 -79 q 611 -127 598 -115 q 648 -140 624 -140 q 669 -138 661 -140 q 683 -135 678 -137 q 692 -131 688 -133 q 699 -130 696 -130 z "},"ę":{"ha":742,"x_min":44,"x_max":694,"o":"m 517 -130 q 533 -141 530 -130 l 560 -204 q 502 -230 537 -219 q 430 -240 468 -240 q 325 -211 362 -240 q 288 -137 288 -183 q 310 -69 288 -102 q 371 -10 331 -37 q 241 20 301 -6 q 138 95 181 47 q 69 213 94 143 q 44 372 44 282 q 67 509 44 444 q 135 620 91 573 q 243 696 179 668 q 386 724 306 724 q 510 702 453 724 q 608 639 567 681 q 672 538 649 598 q 694 401 694 478 q 693 368 694 381 q 686 348 691 356 q 674 338 682 341 q 655 335 667 335 l 215 335 q 274 174 222 225 q 410 122 325 122 q 482 132 451 122 q 534 153 512 142 q 574 175 557 165 q 607 185 591 185 q 638 169 628 185 l 688 106 q 594 33 647 59 q 485 -2 540 8 q 459 -19 472 -10 q 437 -41 447 -29 q 422 -66 428 -53 q 416 -94 416 -80 q 429 -127 416 -115 q 466 -140 442 -140 q 488 -138 479 -140 q 501 -135 496 -137 q 510 -131 506 -133 q 517 -130 514 -130 m 390 601 q 272 558 315 601 q 218 438 230 516 l 540 438 q 531 501 540 472 q 503 553 522 531 q 456 588 485 575 q 390 601 428 601 z "},"Ł":{"ha":765,"x_min":24,"x_max":738,"o":"m 335 604 l 584 728 l 584 603 q 561 566 584 578 l 335 449 l 335 154 l 738 154 l 738 0 l 149 0 l 149 367 l 24 304 l 24 433 q 45 466 24 455 l 149 519 l 149 1004 l 335 1004 l 335 604 z "},"ł":{"ha":471,"x_min":36,"x_max":435,"o":"m 322 1032 l 322 645 l 435 691 l 435 592 q 411 555 435 564 l 322 517 l 322 0 l 150 0 l 150 456 l 36 410 l 36 512 q 58 545 36 536 l 150 584 l 150 1032 l 322 1032 z "},"Ń":{"ha":1050,"x_min":101,"x_max":949,"o":"m 199 1004 q 220 1003 212 1004 q 235 999 228 1002 q 248 990 242 996 q 262 974 254 984 l 789 303 q 785 350 786 327 q 784 394 784 374 l 784 1004 l 949 1004 l 949 0 l 852 0 q 815 7 830 0 q 787 32 801 14 l 262 701 q 265 657 264 678 q 266 617 266 635 l 266 0 l 101 0 l 101 1004 l 199 1004 l 199 1004 m 803 1244 l 598 1094 q 584 1085 590 1088 q 570 1079 577 1081 q 557 1076 564 1077 q 540 1076 549 1076 l 405 1076 l 541 1216 q 557 1230 549 1224 q 572 1239 564 1235 q 589 1243 579 1242 q 613 1244 599 1244 l 803 1244 z "},"ń":{"ha":790,"x_min":92,"x_max":713,"o":"m 92 0 l 92 713 l 197 713 q 240 681 230 713 l 252 625 q 298 665 274 647 q 348 697 322 683 q 406 717 375 710 q 472 724 436 724 q 576 704 531 724 q 651 648 621 684 q 697 563 681 613 q 713 453 713 513 l 713 0 l 541 0 l 541 453 q 511 555 541 519 q 420 590 481 590 q 337 570 376 590 q 263 515 298 550 l 263 0 l 92 0 m 646 1015 l 474 834 q 449 815 461 820 q 417 810 437 810 l 315 810 l 413 978 q 438 1006 424 997 q 479 1015 451 1015 l 646 1015 z "},"Ś":{"ha":769,"x_min":25,"x_max":703,"o":"m 640 822 q 622 800 632 806 q 598 794 612 794 q 567 805 584 794 q 526 828 549 815 q 470 852 502 842 q 396 863 439 863 q 328 854 357 863 q 280 828 299 844 q 250 788 260 811 q 240 737 240 765 q 260 678 240 701 q 313 638 280 654 q 387 608 345 621 q 472 580 428 594 q 557 545 515 565 q 631 495 599 525 q 684 421 664 465 q 703 315 703 377 q 680 187 703 247 q 612 84 657 128 q 503 14 567 40 q 355 -11 438 -11 q 260 -2 307 -11 q 171 25 214 8 q 91 67 128 42 q 25 121 54 91 l 79 210 q 98 227 87 220 q 122 233 108 233 q 159 219 139 233 q 207 188 179 205 q 271 156 234 170 q 360 142 308 142 q 484 180 440 142 q 528 288 528 217 q 508 353 528 328 q 456 395 488 378 q 381 424 423 412 q 297 449 340 435 q 212 483 253 463 q 138 533 170 502 q 85 611 105 565 q 65 727 65 658 q 87 834 65 782 q 151 926 109 886 q 254 991 193 967 q 394 1015 315 1015 q 558 988 483 1015 q 685 910 633 960 l 640 822 m 678 1244 l 473 1094 q 459 1085 465 1088 q 445 1079 452 1081 q 432 1076 439 1077 q 415 1076 424 1076 l 280 1076 l 416 1216 q 432 1230 424 1224 q 447 1239 439 1235 q 464 1243 454 1242 q 488 1244 474 1244 l 678 1244 z "},"ś":{"ha":607,"x_min":29,"x_max":566,"o":"m 515 574 q 500 558 508 563 q 481 553 492 553 q 454 560 468 553 q 421 576 440 567 q 378 592 402 585 q 322 599 354 599 q 242 577 271 599 q 213 521 213 556 q 227 482 213 498 q 267 455 242 467 q 323 434 292 443 q 387 413 354 424 q 451 388 419 402 q 507 352 482 374 q 546 299 531 330 q 561 226 561 269 q 542 131 561 174 q 488 56 524 88 q 398 7 451 24 q 276 -11 345 -11 q 205 -5 240 -11 q 137 14 169 2 q 77 42 105 26 q 29 76 50 58 l 69 142 q 87 160 76 153 q 113 166 97 166 q 143 157 129 166 q 176 138 158 148 q 220 118 195 127 q 285 109 246 109 q 337 116 315 109 q 373 135 359 124 q 394 163 388 147 q 401 195 401 178 q 386 236 401 220 q 346 264 371 252 q 290 285 322 276 q 225 306 258 294 q 161 332 192 317 q 105 369 129 347 q 65 426 80 392 q 50 506 50 459 q 67 590 50 550 q 118 659 85 629 q 202 706 152 688 q 319 724 253 724 q 453 699 392 724 q 553 635 513 675 l 515 574 m 566 1015 l 394 834 q 369 815 381 820 q 338 810 357 810 l 235 810 l 333 978 q 358 1006 344 997 q 399 1015 372 1015 l 566 1015 z "},"Š":{"ha":745,"x_min":25,"x_max":703,"o":"m 640 822 q 622 800 632 806 q 598 794 612 794 q 567 805 584 794 q 526 828 549 815 q 470 852 502 842 q 396 863 439 863 q 328 854 357 863 q 280 828 299 844 q 250 788 260 811 q 240 737 240 765 q 260 678 240 701 q 313 638 280 654 q 387 608 345 621 q 472 580 428 594 q 557 545 515 565 q 631 495 599 525 q 684 421 664 465 q 703 315 703 377 q 680 187 703 247 q 612 84 657 128 q 503 14 567 40 q 355 -11 438 -11 q 260 -2 307 -11 q 171 25 214 8 q 91 67 128 42 q 25 121 54 91 l 79 210 q 98 227 87 220 q 122 233 108 233 q 159 219 139 233 q 207 188 179 205 q 271 156 234 170 q 360 142 308 142 q 484 180 440 142 q 528 288 528 217 q 508 353 528 328 q 456 395 488 378 q 381 424 423 412 q 297 449 340 435 q 212 483 253 463 q 138 533 170 502 q 85 611 105 565 q 65 727 65 658 q 87 834 65 782 q 151 926 109 886 q 254 991 193 967 q 394 1015 315 1015 q 558 988 483 1015 q 685 910 633 960 l 640 822 m 151 1228 l 281 1228 q 303 1225 291 1228 q 324 1217 316 1222 l 394 1170 q 399 1167 397 1169 q 404 1163 401 1165 q 409 1167 407 1165 q 415 1170 412 1169 l 485 1217 q 505 1225 492 1222 q 528 1228 517 1228 l 658 1228 l 490 1076 l 319 1076 l 151 1228 z "},"š":{"ha":607,"x_min":29,"x_max":561,"o":"m 515 574 q 500 558 508 563 q 481 553 492 553 q 454 560 468 553 q 421 576 440 567 q 378 592 402 585 q 322 599 354 599 q 242 577 271 599 q 213 521 213 556 q 227 482 213 498 q 267 455 242 467 q 323 434 292 443 q 387 413 354 424 q 451 388 419 402 q 507 352 482 374 q 546 299 531 330 q 561 226 561 269 q 542 131 561 174 q 488 56 524 88 q 398 7 451 24 q 276 -11 345 -11 q 205 -5 240 -11 q 137 14 169 2 q 77 42 105 26 q 29 76 50 58 l 69 142 q 87 160 76 153 q 113 166 97 166 q 143 157 129 166 q 176 138 158 148 q 220 118 195 127 q 285 109 246 109 q 337 116 315 109 q 373 135 359 124 q 394 163 388 147 q 401 195 401 178 q 386 236 401 220 q 346 264 371 252 q 290 285 322 276 q 225 306 258 294 q 161 332 192 317 q 105 369 129 347 q 65 426 80 392 q 50 506 50 459 q 67 590 50 550 q 118 659 85 629 q 202 706 152 688 q 319 724 253 724 q 453 699 392 724 q 553 635 513 675 l 515 574 m 400 811 l 239 811 l 80 1004 l 199 1004 q 218 1001 209 1004 q 233 992 228 997 l 307 926 q 322 910 313 920 q 329 918 325 915 q 337 926 333 922 l 410 992 q 425 1001 415 997 q 444 1004 435 1004 l 559 1004 l 400 811 z "},"Ÿ":{"ha":909,"x_min":-5,"x_max":913,"o":"m 548 390 l 548 0 l 361 0 l 361 390 l -5 1004 l 160 1004 q 198 992 184 1004 q 222 963 213 981 l 406 627 q 434 570 422 597 q 456 518 446 544 q 476 571 465 544 q 503 627 488 598 l 686 963 q 709 991 694 978 q 748 1004 724 1004 l 913 1004 l 548 390 m 399 1158 q 392 1122 399 1139 q 371 1093 384 1106 q 340 1074 358 1081 q 303 1067 323 1067 q 269 1074 285 1067 q 240 1093 253 1081 q 220 1122 228 1106 q 213 1158 213 1139 q 220 1193 213 1176 q 240 1223 228 1210 q 269 1244 253 1236 q 303 1251 285 1251 q 340 1244 323 1251 q 371 1223 358 1236 q 392 1193 384 1210 q 399 1158 399 1176 m 699 1158 q 692 1122 699 1139 q 672 1093 685 1106 q 643 1074 660 1081 q 606 1067 626 1067 q 570 1074 588 1067 q 541 1093 553 1081 q 520 1122 528 1106 q 513 1158 513 1139 q 520 1193 513 1176 q 541 1223 528 1210 q 570 1244 553 1236 q 606 1251 588 1251 q 643 1244 626 1251 q 672 1223 660 1236 q 692 1193 685 1210 q 699 1158 699 1176 z "},"Ź":{"ha":857,"x_min":43,"x_max":819,"o":"m 819 1004 l 819 935 q 801 877 819 903 l 285 149 l 806 149 l 806 0 l 43 0 l 43 74 q 48 100 43 88 q 60 124 53 113 l 577 856 l 76 856 l 76 1004 l 819 1004 m 717 1244 l 511 1094 q 497 1085 503 1088 q 484 1079 490 1081 q 470 1076 477 1077 q 453 1076 463 1076 l 318 1076 l 454 1216 q 470 1230 463 1224 q 485 1239 477 1235 q 502 1243 492 1242 q 526 1244 512 1244 l 717 1244 z "},"ź":{"ha":652,"x_min":47,"x_max":607,"o":"m 607 642 q 600 607 607 624 q 585 578 594 590 l 246 132 l 597 132 l 597 0 l 47 0 l 47 72 q 52 100 47 83 q 69 131 58 116 l 411 581 l 67 581 l 67 713 l 607 713 l 607 642 m 586 1015 l 415 834 q 389 815 401 820 q 358 810 377 810 l 255 810 l 353 978 q 378 1006 364 997 q 419 1015 392 1015 l 586 1015 z "},"Ż":{"ha":857,"x_min":43,"x_max":819,"o":"m 819 1004 l 819 935 q 801 877 819 903 l 285 149 l 806 149 l 806 0 l 43 0 l 43 74 q 48 100 43 88 q 60 124 53 113 l 577 856 l 76 856 l 76 1004 l 819 1004 m 555 1177 q 546 1138 555 1156 q 523 1105 538 1119 q 489 1083 508 1091 q 448 1074 469 1074 q 409 1083 428 1074 q 376 1105 390 1091 q 353 1138 362 1119 q 345 1177 345 1156 q 353 1218 345 1199 q 376 1251 362 1237 q 409 1274 390 1265 q 448 1282 428 1282 q 489 1274 469 1282 q 523 1251 508 1265 q 546 1218 538 1237 q 555 1177 555 1199 z "},"ż":{"ha":652,"x_min":47,"x_max":607,"o":"m 607 642 q 600 607 607 624 q 585 578 594 590 l 246 132 l 597 132 l 597 0 l 47 0 l 47 72 q 52 100 47 83 q 69 131 58 116 l 411 581 l 67 581 l 67 713 l 607 713 l 607 642 m 457 923 q 448 881 457 901 q 424 847 439 861 q 389 823 409 832 q 345 815 368 815 q 303 823 323 815 q 269 847 284 832 q 246 881 255 861 q 238 923 238 901 q 246 966 238 946 q 269 1000 255 985 q 303 1024 284 1015 q 345 1033 323 1033 q 389 1024 368 1033 q 424 1000 409 1015 q 448 966 439 985 q 457 923 457 946 z "},"Ž":{"ha":857,"x_min":43,"x_max":819,"o":"m 819 1004 l 819 935 q 801 877 819 903 l 285 149 l 806 149 l 806 0 l 43 0 l 43 74 q 48 100 43 88 q 60 124 53 113 l 577 856 l 76 856 l 76 1004 l 819 1004 m 197 1227 l 326 1227 q 349 1224 337 1227 q 369 1216 362 1222 l 440 1169 q 445 1166 442 1168 q 450 1163 447 1165 q 455 1166 453 1165 q 460 1169 458 1168 l 531 1216 q 551 1224 538 1222 q 574 1227 563 1227 l 703 1227 l 535 1075 l 365 1075 l 197 1227 z "},"ž":{"ha":652,"x_min":47,"x_max":607,"o":"m 607 642 q 600 607 607 624 q 585 578 594 590 l 246 132 l 597 132 l 597 0 l 47 0 l 47 72 q 52 100 47 83 q 69 131 58 116 l 411 581 l 67 581 l 67 713 l 607 713 l 607 642 m 426 811 l 265 811 l 106 1004 l 225 1004 q 245 1001 235 1004 q 260 992 254 997 l 333 926 q 348 910 340 920 q 356 918 351 915 q 363 926 360 922 l 436 992 q 451 1001 442 997 q 471 1004 461 1004 l 585 1004 l 426 811 z "},"ƒ":{"ha":806,"x_min":68,"x_max":713,"o":"m 490 517 l 433 40 q 398 -87 424 -34 q 327 -174 372 -140 q 218 -224 282 -208 q 68 -240 153 -240 l 68 -150 q 123 -97 68 -97 q 174 -90 151 -97 q 216 -65 198 -82 q 246 -22 234 -49 q 263 44 258 6 l 320 514 l 235 526 q 196 569 196 535 l 196 640 l 335 640 l 348 742 q 453 951 365 881 q 713 1022 542 1022 l 713 928 q 700 890 713 901 q 658 879 687 879 q 606 872 630 879 q 563 847 582 864 q 532 803 544 831 q 515 738 519 776 l 501 640 l 706 640 l 706 517 l 490 517 z "},"†":{"ha":806,"x_min":58,"x_max":751,"o":"m 58 634 q 63 662 58 649 q 77 685 67 675 q 102 702 88 696 q 138 708 117 708 q 233 697 182 708 q 337 678 285 685 l 315 1017 q 404 1040 353 1040 q 452 1034 429 1040 q 493 1017 475 1028 l 471 678 q 575 697 523 685 q 670 708 626 708 q 706 702 691 708 q 731 685 722 696 q 746 662 741 675 q 751 634 751 649 l 751 577 l 471 577 l 471 331 l 493 -224 q 452 -241 475 -235 q 404 -247 429 -247 q 315 -224 353 -247 l 338 331 l 338 577 l 58 577 l 58 634 z "}}}
